<svg width="30" height="30" viewBox="0 0 30 30" fill="none" xmlns="http://www.w3.org/2000/svg">
<mask id="mask0" mask-type="alpha" maskUnits="userSpaceOnUse" x="3" y="1" width="24" height="29">
<path d="M21.9142 11.8981C24.352 11.435 25.5289 9.62482 25.5289 6.67799V5.92024H22.5867V6.67799C22.5867 8.69867 22.3345 10.4668 21.9142 11.8981ZM12.0368 25.5377H18.0053V26.969H12.0368V25.5377ZM10.3135 24.0222L9.43082 28.5266H20.6112L19.7285 24.0222H10.3135ZM15.021 15.8552C18.972 15.8552 21.1156 12.6558 21.1156 6.72009V2.93131H8.96848V6.67799C8.96848 12.5716 11.1121 15.8552 15.021 15.8552ZM8.21191 11.9402C7.74956 10.4668 7.49737 8.69867 7.49737 6.67799V5.92024H4.4711V6.67799C4.4711 9.66691 5.69002 11.4771 8.21191 11.9402ZM22.5867 4.48892H27V6.67799C27 10.5931 24.8984 13.1189 21.3257 13.4136C20.1909 15.729 18.2995 17.034 15.7776 17.2445V22.5066H20.9895L22.5447 30H7.49737L9.05254 22.5066H14.2644V17.2445C11.7846 17.034 9.9352 15.729 8.80035 13.4136C5.14361 13.161 3 10.6352 3 6.67799V4.48892H7.49737V1.5H22.5867V4.48892Z" fill="white"/>
</mask>
<g mask="url(#mask0)">
<path d="M21.9142 11.8981C24.352 11.435 25.5289 9.62482 25.5289 6.67799V5.92024H22.5867V6.67799C22.5867 8.69867 22.3345 10.4668 21.9142 11.8981ZM12.0368 25.5377H18.0053V26.969H12.0368V25.5377ZM10.3135 24.0222L9.43082 28.5266H20.6112L19.7285 24.0222H10.3135ZM15.021 15.8552C18.972 15.8552 21.1156 12.6558 21.1156 6.72009V2.93131H8.96848V6.67799C8.96848 12.5716 11.1121 15.8552 15.021 15.8552ZM8.21191 11.9402C7.74956 10.4668 7.49737 8.69867 7.49737 6.67799V5.92024H4.4711V6.67799C4.4711 9.66691 5.69002 11.4771 8.21191 11.9402ZM22.5867 4.48892H27V6.67799C27 10.5931 24.8984 13.1189 21.3257 13.4136C20.1909 15.729 18.2995 17.034 15.7776 17.2445V22.5066H20.9895L22.5447 30H7.49737L9.05254 22.5066H14.2644V17.2445C11.7846 17.034 9.9352 15.729 8.80035 13.4136C5.14361 13.161 3 10.6352 3 6.67799V4.48892H7.49737V1.5H22.5867V4.48892Z" fill="#EFDF00"/>
</g>
</svg>
