<svg width="30" height="30" viewBox="0 0 30 30" fill="none" xmlns="http://www.w3.org/2000/svg">
<mask id="mask0" mask-type="alpha" maskUnits="userSpaceOnUse" x="5" y="1" width="20" height="29">
<path d="M22.6234 13.0504C22.7804 13.5341 22.9423 14.0347 22.8267 14.3498C22.711 14.6648 22.2672 14.9317 21.8383 15.1883C21.411 15.4458 20.9689 15.7118 20.659 16.1098C20.3358 16.524 20.1747 17.0356 20.0185 17.5311C19.8689 18.0055 19.7152 18.495 19.4623 18.6653C19.2409 18.8144 18.7243 18.7915 18.2145 18.7415C17.6574 18.6865 17.1095 18.6636 16.698 18.7805C16.2104 18.9177 15.7931 19.2328 15.3898 19.5369C15.0014 19.8291 14.6006 20.1306 14.289 20.1306V20.7659L14.2659 20.1306C14.1287 20.1247 13.9725 20.0425 13.8097 19.9273L13.7898 19.8782L13.7576 19.8909C13.5899 19.7672 13.4155 19.6114 13.2436 19.4555C12.8577 19.1074 12.4585 18.7474 11.9643 18.556C11.5131 18.3824 11.0338 18.3671 10.5404 18.3671L10.3107 18.368C9.8553 18.368 9.42887 18.3544 9.22144 18.1842C8.97352 17.9809 8.86443 17.4718 8.75865 16.978C8.65122 16.4766 8.53965 15.9582 8.26281 15.5246C7.981 15.0858 7.55705 14.7724 7.14715 14.47C6.75047 14.177 6.33975 13.8737 6.25793 13.5688C6.17777 13.2707 6.37694 12.798 6.57032 12.3406C6.77113 11.8638 6.98022 11.3691 7.00418 10.8397C7.02649 10.3307 6.86535 9.83264 6.70915 9.35069C6.55296 8.86705 6.39016 8.36646 6.50668 8.05138C6.62238 7.73629 7.06616 7.46948 7.4959 7.21114C7.92232 6.95534 8.36445 6.68938 8.67519 6.29213C8.99749 5.87794 9.15864 5.3655 9.31483 4.87C9.46358 4.39652 9.61812 3.90695 9.87018 3.7367C10.0925 3.58762 10.6082 3.60964 11.1189 3.66047C11.6767 3.71467 12.2254 3.7367 12.6353 3.6215C13.1229 3.48344 13.5403 3.16835 13.9444 2.86427C14.3311 2.5729 14.732 2.27052 15.0658 2.27052H15.0666C15.3575 2.28492 15.7294 2.62118 16.0897 2.94559C16.4757 3.29371 16.8748 3.65454 17.369 3.84596C17.8203 4.0196 18.3186 4.034 18.7913 4.034L19.0252 4.03315C19.4789 4.03315 19.9045 4.04755 20.1119 4.2178C20.359 4.42023 20.4689 4.93014 20.5747 5.42394C20.6821 5.92538 20.7937 6.44375 21.0714 6.87657C21.3515 7.31532 21.7763 7.62872 22.1862 7.9311C22.5829 8.22501 22.9928 8.5274 23.0746 8.83317C23.1556 9.13047 22.9556 9.6031 22.763 10.0596C22.5614 10.5374 22.3531 11.032 22.3292 11.5622C22.306 12.0713 22.468 12.5693 22.6234 13.0504ZM20.2433 26.6052L18.626 26.1571C18.364 26.0834 18.088 26.1935 17.9426 26.4265L16.9649 27.9858L14.3816 21.3876C15.0567 21.3503 15.6237 20.937 16.1236 20.5601C16.4368 20.3246 16.7608 20.0806 17.0277 20.0044C17.1823 19.9604 17.4128 19.9587 17.6608 19.9722L20.2433 26.6052ZM12.7453 25.4846L11.8246 24.0497C11.6751 23.8185 11.399 23.7109 11.1379 23.788L9.3983 24.2911L11.0131 19.6521C11.2048 19.6656 11.3842 19.6902 11.528 19.7452C11.8098 19.8536 12.1221 20.1357 12.4246 20.4093C12.5411 20.5152 12.6626 20.6236 12.7874 20.7286L13.6452 22.9181L12.7453 25.4846ZM23.5671 11.6207C23.5812 11.3234 23.7431 10.9371 23.901 10.5636C24.1663 9.93598 24.4663 9.22449 24.2704 8.49521C24.0721 7.75831 23.4547 7.30262 22.9109 6.90029C22.5919 6.66482 22.2622 6.42172 22.1068 6.17863C21.9548 5.94232 21.868 5.53998 21.7845 5.15036C21.6399 4.47444 21.4755 3.7079 20.8854 3.2251C20.3218 2.76263 19.5722 2.76263 19.0252 2.76263L18.7913 2.76348C18.4177 2.76348 18.0616 2.75501 17.8054 2.65676C17.5244 2.54834 17.2112 2.26544 16.9087 1.9927C16.4129 1.54463 15.8501 1.03642 15.0435 1C14.3254 1 13.7328 1.44638 13.2097 1.84108C12.8965 2.07655 12.5725 2.32134 12.3064 2.39588C12.0626 2.46533 11.6362 2.43484 11.2371 2.39503C10.9701 2.36962 10.704 2.34421 10.4495 2.34421C10.1198 2.34421 9.62969 2.37809 9.18921 2.67454C8.57271 3.09043 8.33966 3.82902 8.13471 4.48037C8.01323 4.86661 7.88762 5.2664 7.70663 5.49848C7.5397 5.71278 7.21409 5.90844 6.86948 6.11511C6.2819 6.46831 5.61664 6.86725 5.3464 7.60331C5.07616 8.33936 5.31913 9.08897 5.53317 9.75048C5.65878 10.1393 5.77779 10.5077 5.76622 10.7813C5.75217 11.0786 5.58937 11.464 5.43235 11.8367C5.16707 12.4652 4.86708 13.1766 5.06294 13.9068C5.26128 14.6428 5.87778 15.0985 6.42239 15.5008C6.74138 15.7363 7.07112 15.9803 7.22649 16.2225C7.37855 16.4588 7.46449 16.862 7.54796 17.2508C7.69341 17.9275 7.85786 18.6932 8.4471 19.176C8.82394 19.4852 9.28177 19.5809 9.70903 19.6148L7.82646 25.0247C7.74878 25.2483 7.79919 25.4981 7.95786 25.6709C8.11653 25.8446 8.35619 25.9149 8.57932 25.8488L11.0387 25.1373L12.3924 27.2438C12.5073 27.4242 12.7031 27.5301 12.9097 27.5301C12.9337 27.5301 12.9585 27.5284 12.9833 27.5259C13.2163 27.4971 13.4138 27.3353 13.4932 27.11L14.3402 24.6935L16.2625 29.6011C16.3484 29.8221 16.5476 29.9737 16.779 29.9975C16.798 29.9992 16.8178 30 16.8376 30C17.0467 30 17.2442 29.8907 17.3583 29.7078L18.74 27.5039L21.1168 28.1628C21.3432 28.2255 21.5846 28.1518 21.7416 27.9723C21.8978 27.7927 21.9407 27.5377 21.854 27.3141L19.0276 20.0518C19.3475 20.0408 19.7615 19.9841 20.1441 19.7266C20.7606 19.3107 20.9928 18.573 21.1978 17.9216C21.3201 17.5354 21.4457 17.1347 21.6275 16.9027C21.7945 16.6884 22.1201 16.4919 22.4655 16.2843C23.0523 15.9328 23.7167 15.5339 23.9861 14.7978C24.2572 14.0609 24.0142 13.3122 23.8002 12.6498C23.6737 12.261 23.5547 11.8943 23.5671 11.6207ZM19.289 12.7315C18.6495 14.4316 17.0004 15.5725 15.1853 15.5725C14.6587 15.5725 14.1397 15.4785 13.6416 15.2896C12.5457 14.8777 11.6765 14.0623 11.1936 12.9954C10.7097 11.9276 10.6708 10.7363 11.0835 9.64095C11.724 7.94094 13.373 6.8 15.1872 6.8C15.7128 6.8 16.2328 6.89492 16.7309 7.08286C17.8268 7.49481 18.696 8.31018 19.1789 9.37708C19.6628 10.4449 19.7017 11.6362 19.289 12.7315ZM17.023 6.1764C16.4195 5.94885 15.79 5.83333 15.1509 5.83333C12.9514 5.83333 10.9525 7.21776 10.1771 9.27703C9.67698 10.6059 9.72387 12.0494 10.3091 13.3426C10.8952 14.6367 11.9494 15.6242 13.2779 16.1253C13.8805 16.3512 14.51 16.4667 15.1491 16.4667C17.3495 16.4667 19.3483 15.0831 20.1229 13.0238C20.623 11.695 20.5761 10.2515 19.9909 8.95828C19.4048 7.66418 18.3506 6.67667 17.023 6.1764Z" fill="white"/>
</mask>
<g mask="url(#mask0)">
<path d="M22.6234 13.0504C22.7804 13.5341 22.9423 14.0347 22.8267 14.3498C22.711 14.6648 22.2672 14.9317 21.8383 15.1883C21.411 15.4458 20.9689 15.7118 20.659 16.1098C20.3358 16.524 20.1747 17.0356 20.0185 17.5311C19.8689 18.0055 19.7152 18.495 19.4623 18.6653C19.2409 18.8144 18.7243 18.7915 18.2145 18.7415C17.6574 18.6865 17.1095 18.6636 16.698 18.7805C16.2104 18.9177 15.7931 19.2328 15.3898 19.5369C15.0014 19.8291 14.6006 20.1306 14.289 20.1306V20.7659L14.2659 20.1306C14.1287 20.1247 13.9725 20.0425 13.8097 19.9273L13.7898 19.8782L13.7576 19.8909C13.5899 19.7672 13.4155 19.6114 13.2436 19.4555C12.8577 19.1074 12.4585 18.7474 11.9643 18.556C11.5131 18.3824 11.0338 18.3671 10.5404 18.3671L10.3107 18.368C9.8553 18.368 9.42887 18.3544 9.22144 18.1842C8.97352 17.9809 8.86443 17.4718 8.75865 16.978C8.65122 16.4766 8.53965 15.9582 8.26281 15.5246C7.981 15.0858 7.55705 14.7724 7.14715 14.47C6.75047 14.177 6.33975 13.8737 6.25793 13.5688C6.17777 13.2707 6.37694 12.798 6.57032 12.3406C6.77113 11.8638 6.98022 11.3691 7.00418 10.8397C7.02649 10.3307 6.86535 9.83264 6.70915 9.35069C6.55296 8.86705 6.39016 8.36646 6.50668 8.05138C6.62238 7.73629 7.06616 7.46948 7.4959 7.21114C7.92232 6.95534 8.36445 6.68938 8.67519 6.29213C8.99749 5.87794 9.15864 5.3655 9.31483 4.87C9.46358 4.39652 9.61812 3.90695 9.87018 3.7367C10.0925 3.58762 10.6082 3.60964 11.1189 3.66047C11.6767 3.71467 12.2254 3.7367 12.6353 3.6215C13.1229 3.48344 13.5403 3.16835 13.9444 2.86427C14.3311 2.5729 14.732 2.27052 15.0658 2.27052H15.0666C15.3575 2.28492 15.7294 2.62118 16.0897 2.94559C16.4757 3.29371 16.8748 3.65454 17.369 3.84596C17.8203 4.0196 18.3186 4.034 18.7913 4.034L19.0252 4.03315C19.4789 4.03315 19.9045 4.04755 20.1119 4.2178C20.359 4.42023 20.4689 4.93014 20.5747 5.42394C20.6821 5.92538 20.7937 6.44375 21.0714 6.87657C21.3515 7.31532 21.7763 7.62872 22.1862 7.9311C22.5829 8.22501 22.9928 8.5274 23.0746 8.83317C23.1556 9.13047 22.9556 9.6031 22.763 10.0596C22.5614 10.5374 22.3531 11.032 22.3292 11.5622C22.306 12.0713 22.468 12.5693 22.6234 13.0504ZM20.2433 26.6052L18.626 26.1571C18.364 26.0834 18.088 26.1935 17.9426 26.4265L16.9649 27.9858L14.3816 21.3876C15.0567 21.3503 15.6237 20.937 16.1236 20.5601C16.4368 20.3246 16.7608 20.0806 17.0277 20.0044C17.1823 19.9604 17.4128 19.9587 17.6608 19.9722L20.2433 26.6052ZM12.7453 25.4846L11.8246 24.0497C11.6751 23.8185 11.399 23.7109 11.1379 23.788L9.3983 24.2911L11.0131 19.6521C11.2048 19.6656 11.3842 19.6902 11.528 19.7452C11.8098 19.8536 12.1221 20.1357 12.4246 20.4093C12.5411 20.5152 12.6626 20.6236 12.7874 20.7286L13.6452 22.9181L12.7453 25.4846ZM23.5671 11.6207C23.5812 11.3234 23.7431 10.9371 23.901 10.5636C24.1663 9.93598 24.4663 9.22449 24.2704 8.49521C24.0721 7.75831 23.4547 7.30262 22.9109 6.90029C22.5919 6.66482 22.2622 6.42172 22.1068 6.17863C21.9548 5.94232 21.868 5.53998 21.7845 5.15036C21.6399 4.47444 21.4755 3.7079 20.8854 3.2251C20.3218 2.76263 19.5722 2.76263 19.0252 2.76263L18.7913 2.76348C18.4177 2.76348 18.0616 2.75501 17.8054 2.65676C17.5244 2.54834 17.2112 2.26544 16.9087 1.9927C16.4129 1.54463 15.8501 1.03642 15.0435 1C14.3254 1 13.7328 1.44638 13.2097 1.84108C12.8965 2.07655 12.5725 2.32134 12.3064 2.39588C12.0626 2.46533 11.6362 2.43484 11.2371 2.39503C10.9701 2.36962 10.704 2.34421 10.4495 2.34421C10.1198 2.34421 9.62969 2.37809 9.18921 2.67454C8.57271 3.09043 8.33966 3.82902 8.13471 4.48037C8.01323 4.86661 7.88762 5.2664 7.70663 5.49848C7.5397 5.71278 7.21409 5.90844 6.86948 6.11511C6.2819 6.46831 5.61664 6.86725 5.3464 7.60331C5.07616 8.33936 5.31913 9.08897 5.53317 9.75048C5.65878 10.1393 5.77779 10.5077 5.76622 10.7813C5.75217 11.0786 5.58937 11.464 5.43235 11.8367C5.16707 12.4652 4.86708 13.1766 5.06294 13.9068C5.26128 14.6428 5.87778 15.0985 6.42239 15.5008C6.74138 15.7363 7.07112 15.9803 7.22649 16.2225C7.37855 16.4588 7.46449 16.862 7.54796 17.2508C7.69341 17.9275 7.85786 18.6932 8.4471 19.176C8.82394 19.4852 9.28177 19.5809 9.70903 19.6148L7.82646 25.0247C7.74878 25.2483 7.79919 25.4981 7.95786 25.6709C8.11653 25.8446 8.35619 25.9149 8.57932 25.8488L11.0387 25.1373L12.3924 27.2438C12.5073 27.4242 12.7031 27.5301 12.9097 27.5301C12.9337 27.5301 12.9585 27.5284 12.9833 27.5259C13.2163 27.4971 13.4138 27.3353 13.4932 27.11L14.3402 24.6935L16.2625 29.6011C16.3484 29.8221 16.5476 29.9737 16.779 29.9975C16.798 29.9992 16.8178 30 16.8376 30C17.0467 30 17.2442 29.8907 17.3583 29.7078L18.74 27.5039L21.1168 28.1628C21.3432 28.2255 21.5846 28.1518 21.7416 27.9723C21.8978 27.7927 21.9407 27.5377 21.854 27.3141L19.0276 20.0518C19.3475 20.0408 19.7615 19.9841 20.1441 19.7266C20.7606 19.3107 20.9928 18.573 21.1978 17.9216C21.3201 17.5354 21.4457 17.1347 21.6275 16.9027C21.7945 16.6884 22.1201 16.4919 22.4655 16.2843C23.0523 15.9328 23.7167 15.5339 23.9861 14.7978C24.2572 14.0609 24.0142 13.3122 23.8002 12.6498C23.6737 12.261 23.5547 11.8943 23.5671 11.6207ZM19.289 12.7315C18.6495 14.4316 17.0004 15.5725 15.1853 15.5725C14.6587 15.5725 14.1397 15.4785 13.6416 15.2896C12.5457 14.8777 11.6765 14.0623 11.1936 12.9954C10.7097 11.9276 10.6708 10.7363 11.0835 9.64095C11.724 7.94094 13.373 6.8 15.1872 6.8C15.7128 6.8 16.2328 6.89492 16.7309 7.08286C17.8268 7.49481 18.696 8.31018 19.1789 9.37708C19.6628 10.4449 19.7017 11.6362 19.289 12.7315ZM17.023 6.1764C16.4195 5.94885 15.79 5.83333 15.1509 5.83333C12.9514 5.83333 10.9525 7.21776 10.1771 9.27703C9.67698 10.6059 9.72387 12.0494 10.3091 13.3426C10.8952 14.6367 11.9494 15.6242 13.2779 16.1253C13.8805 16.3512 14.51 16.4667 15.1491 16.4667C17.3495 16.4667 19.3483 15.0831 20.1229 13.0238C20.623 11.695 20.5761 10.2515 19.9909 8.95828C19.4048 7.66418 18.3506 6.67667 17.023 6.1764Z" fill="#EFDF00"/>
</g>
</svg>
